<?xml version="1.0" encoding="UTF-8"?>
<svg width="600" height="400" viewBox="0 0 600 400" xmlns="http://www.w3.org/2000/svg">
    <style>
        .primary { fill: #2563eb; }
        .secondary { fill: #1e40af; }
        .light { fill: #f3f4f6; }
        .dark { fill: #1f2937; }
    </style>
    
    <!-- Background Elements -->
    <rect width="600" height="400" fill="#ffffff"/>
    <circle cx="300" cy="200" r="150" class="light" opacity="0.5"/>
    
    <!-- Decorative Elements -->
    <circle cx="100" cy="100" r="20" class="primary" opacity="0.2"/>
    <circle cx="500" cy="300" r="30" class="secondary" opacity="0.2"/>
    <circle cx="200" cy="350" r="15" class="primary" opacity="0.2"/>
    
    <!-- Main Illustration -->
    <g transform="translate(200, 150)">
        <!-- Person -->
        <circle cx="100" cy="100" r="50" class="dark"/>
        <rect x="75" y="160" width="50" height="100" class="dark"/>
        <rect x="60" y="160" width="20" height="80" class="dark"/>
        <rect x="120" y="160" width="20" height="80" class="dark"/>
        
        <!-- Briefcase -->
        <rect x="120" y="180" width="60" height="40" class="primary"/>
        <rect x="130" y="190" width="40" height="20" class="light"/>
        
        <!-- Document -->
        <rect x="40" y="120" width="40" height="50" class="secondary"/>
        <line x1="50" y1="140" x2="70" y2="140" stroke="white" stroke-width="2"/>
        <line x1="50" y1="160" x2="70" y2="160" stroke="white" stroke-width="2"/>
    </g>
    
    <!-- Decorative Lines -->
    <path d="M 50 50 L 550 50" stroke="#2563eb" stroke-width="2" opacity="0.1"/>
    <path d="M 50 350 L 550 350" stroke="#1e40af" stroke-width="2" opacity="0.1"/>
</svg> 